. 
  
http://www.torrentday.com/        :     The Hottest Private Tracker On The Net!!!
 
http://www.torrentday.com          :     Once & For all ;)


               www . TorrentDay . Com 

(((((((((((((= Enjoy No RAR releases =))))))))))))))))))))


...................................NFO:....................................

.[pre][center][img]http://leetleech.org/images/92413864780137911043.jpg[/img]

[color=red][size=5][b]G.I.Joe: The Rise of Cobra (2009) BDRip 720P XViD AC3 DiVERSiTY[/b][/size][[/color][/center]

[info]
[color=red][b][u]General[/u][/b][/color]
Source                           : G I Joe The Rise of Cobra 2009 Blu-ray 1080p AVC DTS-HD MA 5.1 DIY-wq561103@beAst
Format                           : AVI
Format/Info                      : Audio Video Interleave
Format profile                   : OpenDML
Format settings                  : rec
File size                        : 2.02 GiB
Duration                         : 1h 57mn
Overall bit rate                 : 2 450 Kbps
Writing application              : AVI-Mux GUI 1.17.8.3, Feb 16 201019:42:50

[color=red][b][u]Video[/u][/b][/color]
Format                           : MPEG-4 Visual
Format profile                   : Advanced Simple@L5
Format settings, BVOP            : 2
Format settings, QPel            : No
Format settings, GMC             : No warppoints
Format settings, Matrix          : Default (H.263)
Codec ID                         : XVID
Codec ID/Hint                    : XviD
Duration                         : 1h 57mn
Bit rate                         : 1 997 Kbps
Width                            : 1 280 pixels
Height                           : 528 pixels
Display aspect ratio             : 2.40:1
Frame rate                       : 23.976 fps
Color space                      : YUV
Chroma subsampling               : 4:2:0
Bit depth                        : 8 bits
Scan type                        : Progressive
Compression mode                 : Lossy
Bits/(Pixel*Frame)               : 0.123
Stream size                      : 1.65 GiB (81%)
Writing library                  : XviD 1.2.1 (UTC 2008-12-04)

[color=red][b][u]Audio[/u][/b][/color]
Format                           : AC-3
Format/Info                      : Audio Coding 3
Mode extension                   : CM (complete main)
Codec ID                         : 2000
Duration                         : 1h 57mn
Bit rate mode                    : Constant
Bit rate                         : 448 Kbps
Channel(s)                       : 6 channels
Channel positions                : Front: L C R, Side: L R, LFE
Sampling rate                    : 48.0 KHz
Bit depth                        : 16 bits
Compression mode                 : Lossy
Stream size                      : 378 MiB (18%)
Alignment                        : Aligned on interleaves
Interleave, duration             : 64 ms (1.53 video frames)
Interleave, preload duration     : 192 ms

Subtitle                         : English soft subs

IMDb                             : [url]http://www.imdb.com/title/tt1046173/[/url]

[cast]
Adewale Akinnuoye-Agbaje ........: Heavy Duty
Christopher Eccleston ...........: James McCullen / Destro
Sienna Miller ...................: Anastasia 'Ana' DeCobray / Baroness
Byung-hun Lee ...................: Storm Shadow
Joseph Gordon-Levitt ............: Rex Lewis / The Doctor
Rachel Nichols ..................: Shana 'Scarlett' O'Hara
Ray Park ........................: Snake Eyes

[plot]
An elite military unit comprised of special operatives known as
G.I. Joe, operating out of The Pit, takes on an evil organization
led by a notorious arms dealer.

[note]

[color=red][b]Sample Included.

Enjoy!

Don't forget to thank the uploader.

Greets to:[/b][/color]

TOXiC, FLAWL3SS, DiGiTAL iNK, RDX, Zia, Merwais, Smelly,
Hibees,Toon, Tinners, 202122, PureDarkness, mgw012, Skrufern...

... and everyone who spends their own time and cash to share and make P2P great. :clap:

[screens]
[center][img]http://leetleech.org/images/25545049319826181276.png[/img]
[img]http://leetleech.org/images/44482893950094290699.png[/img]
[img]http://leetleech.org/images/73987372385263478729.png[/img]
[img]http://leetleech.org/images/95220484433173470094.png[/img]
[img]http://leetleech.org/images/89023599597898924381.png[/img]

[img]http://leetleech.org/images/31028165806783632473.png[/img][/center][/pre]